<svg xmlns="http://www.w3.org/2000/svg" xmlns:xlink="http://www.w3.org/1999/xlink" viewBox="0 0 49.43 14.83"><defs><linearGradient id="New_Gradient_Swatch" y1="7.41" x2="49.43" y2="7.41" gradientUnits="userSpaceOnUse"><stop offset="0" stop-color="#279264"/><stop offset="1" stop-color="#a4f3aa"/></linearGradient></defs><title>VuePress-Icon</title><g id="VuePress_Icon" data-name="VuePress Icon" style="isolation:isolate"><rect width="49.43" height="14.83" style="fill:url(#New_Gradient_Swatch)"/><path d="M6.26,3.08v.16H5.11L7.59,9.75l2.53-6.51H9V3.08h2.29v.16h-1l-3.38,8.7H6.57L3.26,3.24h-1V3.08Z" style="fill:#fff"/><path d="M11.54,3.24V3.08h1.81l1,0,1,0a5,5,0,0,1,1,.1,3.16,3.16,0,0,1,.94.32,2.06,2.06,0,0,1,.7.61,1.58,1.58,0,0,1,.28,1A1.37,1.37,0,0,1,18,5.9a2.16,2.16,0,0,1-.66.58,3.08,3.08,0,0,1-.79.35,5.62,5.62,0,0,1-.71.16V7a5.72,5.72,0,0,1,1,.15,3.19,3.19,0,0,1,.93.38,2.27,2.27,0,0,1,.7.68,1.91,1.91,0,0,1,.27,1.05,1.88,1.88,0,0,1-.35,1.16,2.75,2.75,0,0,1-.87.72,4,4,0,0,1-1.08.36,5.84,5.84,0,0,1-1,.1H11.54v-.17h1.1V3.24ZM14.87,7a2.2,2.2,0,0,0,.86-.14,1.15,1.15,0,0,0,.47-.39,1.33,1.33,0,0,0,.19-.56,4.48,4.48,0,0,0,.05-.64,4.62,4.62,0,0,0-.08-.9,1.48,1.48,0,0,0-.24-.63,1,1,0,0,0-.46-.36,2,2,0,0,0-.75-.12h-.26l-.27,0V7Zm.21,4.54a2.45,2.45,0,0,0,.69-.09,1.13,1.13,0,0,0,.52-.34,1.74,1.74,0,0,0,.33-.71,4.7,4.7,0,0,0,.12-1.18c0-.13,0-.32,0-.54A2.12,2.12,0,0,0,16.5,8,1.51,1.51,0,0,0,16,7.37a1.49,1.49,0,0,0-.93-.25h-.7v4.33A5.18,5.18,0,0,0,15.08,11.49Z" style="fill:#fff"/><path d="M23.84,3.08v.16h-1.1v8.21h2a2.44,2.44,0,0,0,.8-.13,2.18,2.18,0,0,0,.76-.44,3.24,3.24,0,0,0,.64-.79,4.28,4.28,0,0,0,.43-1.18h.16v2.71H19.89v-.17H21V3.24H19.89V3.08Z" style="fill:#fff"/><path d="M28.92,5.52A4.84,4.84,0,0,1,30,4.11a4.91,4.91,0,0,1,1.45-.91A4.37,4.37,0,0,1,33,2.88a4.46,4.46,0,0,1,1.63.32,4.33,4.33,0,0,1,1.44.88,4.52,4.52,0,0,1,1,1.4,4.33,4.33,0,0,1,0,3.57,4.71,4.71,0,0,1-1,1.42,4.45,4.45,0,0,1-1.42,1,4.16,4.16,0,0,1-1.71.36,4.51,4.51,0,0,1-3.14-1.28,4.67,4.67,0,0,1-1-1.4,4,4,0,0,1-.37-1.74A4.05,4.05,0,0,1,28.92,5.52Zm1.69,3.92a3.4,3.4,0,0,0,.45,1.31,1.67,1.67,0,0,0,.79.68,3.1,3.1,0,0,0,1.16.19,2.53,2.53,0,0,0,1.39-.33,2,2,0,0,0,.76-.91A4.53,4.53,0,0,0,35.47,9c.05-.53.07-1.11.07-1.74s0-1.09,0-1.6a4.12,4.12,0,0,0-.31-1.34,2.11,2.11,0,0,0-.76-.93A2.58,2.58,0,0,0,33,3.05a2.54,2.54,0,0,0-1.35.32,2.1,2.1,0,0,0-.77.89,4.44,4.44,0,0,0-.34,1.37,15.53,15.53,0,0,0-.09,1.74A11.87,11.87,0,0,0,30.61,9.44Z" style="fill:#fff"/><path d="M45.67,5.52a4.16,4.16,0,0,0-.94-1.83,2.16,2.16,0,0,0-1.67-.64,2.49,2.49,0,0,0-1.33.32A2.19,2.19,0,0,0,41,4.2a3.5,3.5,0,0,0-.36,1.16,11.73,11.73,0,0,0-.08,1.33v1a10.52,10.52,0,0,0,.14,1.84,3.5,3.5,0,0,0,.45,1.2,1.74,1.74,0,0,0,.8.65,3.07,3.07,0,0,0,1.15.2,1.71,1.71,0,0,0,.88-.2,1.3,1.3,0,0,0,.5-.54,2.4,2.4,0,0,0,.22-.81c0-.31.05-.65.05-1V8.6H43.47V8.43h3.71V8.6H46.4v2.74h-.22a.28.28,0,0,0-.14-.21.51.51,0,0,0-.25-.06,1.42,1.42,0,0,0-.55.11l-.56.25a4.6,4.6,0,0,1-.69.24,3.21,3.21,0,0,1-.94.12,4.47,4.47,0,0,1-1.69-.34,4.58,4.58,0,0,1-2.43-2.34,4.17,4.17,0,0,1-.37-1.74A4.06,4.06,0,0,1,39,5.52,4.78,4.78,0,0,1,41.49,3.2a4.23,4.23,0,0,1,1.56-.32,3.27,3.27,0,0,1,.7.08,5.12,5.12,0,0,1,.62.15l.52.15a1.63,1.63,0,0,0,.38.07.38.38,0,0,0,.24-.06.42.42,0,0,0,.13-.19h.21V5.52Z" style="fill:#fff"/></g></svg>